<svg xmlns="http://www.w3.org/2000/svg" viewBox="0 0 64 64" role="img" aria-label="Warmtepomp">
  <rect width="64" height="64" rx="14" fill="#066839"/>
  <rect x="12" y="17" width="40" height="31" rx="6" fill="#ffffff"/>
  <rect x="16" y="21" width="32" height="23" rx="4" fill="#e8f5ec"/>
  <circle cx="32" cy="32.5" r="9.5" fill="#066839"/>
  <circle cx="32" cy="32.5" r="3.2" fill="#ffffff"/>
  <path d="M32 23.5c2.6 4.2 2.3 7.1 0 9-2.3-1.9-2.6-4.8 0-9Z" fill="#ffffff"/>
  <path d="M41 32.5c-4.2 2.6-7.1 2.3-9 0 1.9-2.3 4.8-2.6 9 0Z" fill="#ffffff"/>
  <path d="M32 41.5c-2.6-4.2-2.3-7.1 0-9 2.3 1.9 2.6 4.8 0 9Z" fill="#ffffff"/>
  <path d="M23 32.5c4.2-2.6 7.1-2.3 9 0-1.9 2.3-4.8 2.6-9 0Z" fill="#ffffff"/>
  <path d="M18 51h28" stroke="#ffffff" stroke-width="4" stroke-linecap="round"/>
  <path d="M22 13h20" stroke="#ffffff" stroke-width="4" stroke-linecap="round"/>
</svg>
